<?xml version="1.0" encoding="UTF-8" standalone="no"?>
<!DOCTYPE svg PUBLIC "-//W3C//DTD SVG 1.1//EN"
 "http://www.w3.org/Graphics/SVG/1.1/DTD/svg11.dtd">
<!-- Generated by graphviz version 2.38.0 (20140413.2041)
 -->
<!-- Title: controllers_diagram Pages: 1 -->
<svg width="312pt" height="216pt"
 viewBox="0.00 0.00 312.00 215.50" xmlns="http://www.w3.org/2000/svg" xmlns:xlink="http://www.w3.org/1999/xlink">
<g id="graph0" class="graph" transform="scale(1 1) rotate(0) translate(102 169.5)">
<title>controllers_diagram</title>
<polygon fill="none" stroke="none" points="-102,46 -102,-169.5 210,-169.5 210,46 -102,46"/>
<!-- _diagram_info -->
<g id="node1" class="node"><title>_diagram_info</title>
<text text-anchor="start" x="-90" y="-21.6" font-family="Times,serif" font-size="13.00">Controllers diagram</text>
<text text-anchor="start" x="-90" y="-7.6" font-family="Times,serif" font-size="13.00">Date: Sep 15 2017 &#45; 16:00</text>
<text text-anchor="start" x="-90" y="6.4" font-family="Times,serif" font-size="13.00">Migration version: 0</text>
<text text-anchor="start" x="-90" y="20.4" font-family="Times,serif" font-size="13.00">Generated by RailRoady 1.5.3</text>
<text text-anchor="start" x="-90" y="34.4" font-family="Times,serif" font-size="13.00">http://railroady.prestonlee.com</text>
</g>
<!-- IndexController -->
<g id="node2" class="node"><title>IndexController</title>
<path fill="none" stroke="black" d="M-43.5,-70.5C-43.5,-70.5 35.5,-70.5 35.5,-70.5 41.5,-70.5 47.5,-76.5 47.5,-82.5 47.5,-82.5 47.5,-151.5 47.5,-151.5 47.5,-157.5 41.5,-163.5 35.5,-163.5 35.5,-163.5 -43.5,-163.5 -43.5,-163.5 -49.5,-163.5 -55.5,-157.5 -55.5,-151.5 -55.5,-151.5 -55.5,-82.5 -55.5,-82.5 -55.5,-76.5 -49.5,-70.5 -43.5,-70.5"/>
<text text-anchor="middle" x="-4" y="-148.3" font-family="Times,serif" font-size="14.00">IndexController</text>
<polyline fill="none" stroke="black" points="-55.5,-140.5 47.5,-140.5 "/>
<text text-anchor="start" x="-47.5" y="-125.3" font-family="Times,serif" font-size="14.00">index</text>
<polyline fill="none" stroke="black" points="-55.5,-117.5 47.5,-117.5 "/>
<polyline fill="none" stroke="black" points="-55.5,-93.5 47.5,-93.5 "/>
<text text-anchor="start" x="-47.5" y="-78.3" font-family="Times,serif" font-size="14.00">_layout</text>
</g>
<!-- ApplicationController -->
<g id="node3" class="node"><title>ApplicationController</title>
<path fill="none" stroke="black" d="M82,-71C82,-71 194,-71 194,-71 200,-71 206,-77 206,-83 206,-83 206,-153 206,-153 206,-159 200,-165 194,-165 194,-165 82,-165 82,-165 76,-165 70,-159 70,-153 70,-153 70,-83 70,-83 70,-77 76,-71 82,-71"/>
<text text-anchor="middle" x="138" y="-149.8" font-family="Times,serif" font-size="14.00">ApplicationController</text>
<polyline fill="none" stroke="black" points="70,-142 206,-142 "/>
<polyline fill="none" stroke="black" points="70,-118 206,-118 "/>
<polyline fill="none" stroke="black" points="70,-94 206,-94 "/>
<text text-anchor="start" x="78" y="-78.8" font-family="Times,serif" font-size="14.00">_layout</text>
</g>
</g>
</svg>
